<svg width="32" height="32" viewBox="0 0 32 32" fill="none" xmlns="http://www.w3.org/2000/svg">
  <!-- Background Circle -->
  <circle cx="16" cy="16" r="15" fill="url(#gradient)" stroke="url(#borderGradient)" stroke-width="1"/>
  
  <!-- Compression Icon - Arrows pointing inward -->
  <path d="M8 12L12 8V11H14V13H12V16L8 12Z" fill="#60A5FA"/>
  <path d="M24 12L20 8V11H18V13H20V16L24 12Z" fill="#60A5FA"/>
  <path d="M12 8L8 12H11V14H13V12H16L12 8Z" fill="#A78BFA"/>
  <path d="M12 24L8 20H11V18H13V20H16L12 24Z" fill="#A78BFA"/>
  
  <!-- Center H Symbol -->
  <rect x="14" y="10" width="4" height="2" fill="#F3F4F6"/>
  <rect x="14" y="14" width="4" height="2" fill="#F3F4F6"/>
  <rect x="14" y="18" width="4" height="2" fill="#F3F4F6"/>
  <rect x="12" y="12" width="2" height="6" fill="#F3F4F6"/>
  <rect x="18" y="12" width="2" height="6" fill="#F3F4F6"/>
  
  <defs>
    <linearGradient id="gradient" x1="0%" y1="0%" x2="100%" y2="100%">
      <stop offset="0%" style="stop-color:#1E293B;stop-opacity:1" />
      <stop offset="50%" style="stop-color:#334155;stop-opacity:1" />
      <stop offset="100%" style="stop-color:#475569;stop-opacity:1" />
    </linearGradient>
    <linearGradient id="borderGradient" x1="0%" y1="0%" x2="100%" y2="100%">
      <stop offset="0%" style="stop-color:#3B82F6;stop-opacity:0.5" />
      <stop offset="100%" style="stop-color:#8B5CF6;stop-opacity:0.5" />
    </linearGradient>
  </defs>
</svg>
