<svg width="64" height="64" viewBox="0 0 64 64" fill="none" xmlns="http://www.w3.org/2000/svg">
  <!-- Background Circle -->
  <circle cx="32" cy="32" r="30" fill="url(#gradient)" stroke="url(#borderGradient)" stroke-width="2"/>
  
  <!-- Compression Arrows -->
  <path d="M16 24L24 16V22H28V26H24V32L16 24Z" fill="#60A5FA"/>
  <path d="M48 24L40 16V22H36V26H40V32L48 24Z" fill="#60A5FA"/>
  <path d="M24 16L16 24H22V28H26V24H32L24 16Z" fill="#A78BFA"/>
  <path d="M24 48L16 40H22V36H26V40H32L24 48Z" fill="#A78BFA"/>
  
  <!-- HYP Letters -->
  <g fill="#F3F4F6">
    <!-- H -->
    <rect x="26" y="20" width="3" height="12"/>
    <rect x="35" y="20" width="3" height="12"/>
    <rect x="26" y="25" width="12" height="3"/>
    
    <!-- Y -->
    <rect x="20" y="36" width="3" height="6"/>
    <rect x="23" y="39" width="3" height="3"/>
    <rect x="26" y="42" width="3" height="6"/>
    <rect x="23" y="42" width="3" height="3"/>
    
    <!-- P -->
    <rect x="32" y="36" width="3" height="12"/>
    <rect x="35" y="36" width="6" height="3"/>
    <rect x="35" y="41" width="6" height="3"/>
    <rect x="41" y="36" width="3" height="8"/>
  </g>
  
  <defs>
    <linearGradient id="gradient" x1="0%" y1="0%" x2="100%" y2="100%">
      <stop offset="0%" style="stop-color:#1E293B;stop-opacity:1" />
      <stop offset="50%" style="stop-color:#334155;stop-opacity:1" />
      <stop offset="100%" style="stop-color:#475569;stop-opacity:1" />
    </linearGradient>
    <linearGradient id="borderGradient" x1="0%" y1="0%" x2="100%" y2="100%">
      <stop offset="0%" style="stop-color:#3B82F6;stop-opacity:0.6" />
      <stop offset="100%" style="stop-color:#8B5CF6;stop-opacity:0.6" />
    </linearGradient>
  </defs>
</svg>
