<svg width="32" height="32" viewBox="0 0 32 32" fill="none" xmlns="http://www.w3.org/2000/svg">
  <!-- Background Circle with gradient -->
  <circle cx="16" cy="16" r="16" fill="url(#bgGradient)"/>
  
  <!-- Compression symbol - inward arrows -->
  <g fill="#60A5FA">
    <!-- Left arrow -->
    <path d="M6 14L10 10V12H12V16H10V18L6 14Z"/>
    <!-- Right arrow -->
    <path d="M26 14L22 10V12H20V16H22V18L26 14Z"/>
    <!-- Top arrow -->
    <path d="M14 6L10 10H12V12H16V10H18L14 6Z"/>
    <!-- Bottom arrow -->
    <path d="M14 26L10 22H12V20H16V22H18L14 26Z"/>
  </g>
  
  <!-- Center H logo -->
  <g fill="white">
    <rect x="12" y="11" width="2" height="10"/>
    <rect x="18" y="11" width="2" height="10"/>
    <rect x="12" y="15" width="8" height="2"/>
  </g>
  
  <defs>
    <linearGradient id="bgGradient" x1="0%" y1="0%" x2="100%" y2="100%">
      <stop offset="0%" style="stop-color:#1E293B"/>
      <stop offset="50%" style="stop-color:#334155"/>
      <stop offset="100%" style="stop-color:#475569"/>
    </linearGradient>
  </defs>
</svg>
